<svg width="22" height="14" viewBox="0 0 22 14" fill="none" xmlns="http://www.w3.org/2000/svg">
<path d="M7.625 13.6094L8.5625 12.6719C8.75 12.4375 8.75 12.1094 8.51562 11.875L4.76562 8.21875H20.9375C21.2188 8.21875 21.5 7.98438 21.5 7.65625V6.34375C21.5 6.0625 21.2188 5.78125 20.9375 5.78125H4.76562L8.51562 2.17188C8.75 1.9375 8.75 1.60938 8.5625 1.375L7.625 0.4375C7.39062 0.25 7.0625 0.25 6.82812 0.4375L0.640625 6.625C0.453125 6.85938 0.453125 7.1875 0.640625 7.42188L6.82812 13.6094C7.0625 13.7969 7.39062 13.7969 7.625 13.6094Z" fill="white"/>
</svg>
