<svg width="24" height="21" viewBox="0 0 24 21" fill="none" xmlns="http://www.w3.org/2000/svg">
<path d="M21.75 1.5C22.125 1.5 22.5 1.875 22.5 2.25V18.75C22.5 19.1719 22.125 19.5 21.75 19.5H2.25C1.82812 19.5 1.5 19.1719 1.5 18.75V2.25C1.5 1.875 1.82812 1.5 2.25 1.5H21.75ZM21.75 0H2.25C0.984375 0 0 1.03125 0 2.25V18.75C0 20.0156 0.984375 21 2.25 21H21.75C22.9688 21 24 20.0156 24 18.75V2.25C24 1.03125 22.9688 0 21.75 0ZM6 4.5C5.15625 4.5 4.5 5.20312 4.5 6C4.5 6.84375 5.15625 7.5 6 7.5C6.79688 7.5 7.5 6.84375 7.5 6C7.5 5.20312 6.79688 4.5 6 4.5ZM6 9C5.15625 9 4.5 9.70312 4.5 10.5C4.5 11.3438 5.15625 12 6 12C6.79688 12 7.5 11.3438 7.5 10.5C7.5 9.70312 6.79688 9 6 9ZM6 13.5C5.15625 13.5 4.5 14.2031 4.5 15C4.5 15.8438 5.15625 16.5 6 16.5C6.79688 16.5 7.5 15.8438 7.5 15C7.5 14.2031 6.79688 13.5 6 13.5ZM19.5 6.5625V5.4375C19.5 5.29688 19.3594 5.15625 19.2188 5.15625H9.28125C9.09375 5.15625 9 5.29688 9 5.4375V6.5625C9 6.75 9.09375 6.84375 9.28125 6.84375H19.2188C19.3594 6.84375 19.5 6.75 19.5 6.5625ZM19.5 11.0625V9.9375C19.5 9.79688 19.3594 9.65625 19.2188 9.65625H9.28125C9.09375 9.65625 9 9.79688 9 9.9375V11.0625C9 11.25 9.09375 11.3438 9.28125 11.3438H19.2188C19.3594 11.3438 19.5 11.25 19.5 11.0625ZM19.5 15.5625V14.4375C19.5 14.2969 19.3594 14.1562 19.2188 14.1562H9.28125C9.09375 14.1562 9 14.2969 9 14.4375V15.5625C9 15.75 9.09375 15.8438 9.28125 15.8438H19.2188C19.3594 15.8438 19.5 15.75 19.5 15.5625Z" fill="#E0E0E0"/>
</svg>
