<svg width="24" height="25" viewBox="0 0 24 25" fill="none" xmlns="http://www.w3.org/2000/svg">
<path d="M12 0.875C5.57812 0.875 0.375 6.07812 0.375 12.5C0.375 18.9219 5.57812 24.125 12 24.125C18.4219 24.125 23.625 18.9219 23.625 12.5C23.625 6.07812 18.4219 0.875 12 0.875ZM18 20.6562C16.3125 21.9219 14.2031 22.625 12 22.625C9.75 22.625 7.64062 21.9219 6 20.6562V20C6 18.3594 7.3125 17 9 17C9.51562 17 10.2656 17.5625 12 17.5625C13.6875 17.5625 14.4375 17 15 17C16.6406 17 18 18.3594 18 20V20.6562ZM19.4062 19.3906C19.0781 17.1875 17.25 15.5 15 15.5C14.0156 15.5 13.5469 16.0625 12 16.0625C10.4062 16.0625 9.9375 15.5 9 15.5C6.70312 15.5 4.875 17.1875 4.54688 19.3906C2.85938 17.5625 1.875 15.1719 1.875 12.5C1.875 6.92188 6.375 2.375 12 2.375C17.5781 2.375 22.125 6.92188 22.125 12.5C22.125 15.1719 21.0938 17.5625 19.4062 19.3906ZM12 6.125C9.70312 6.125 7.875 8 7.875 10.25C7.875 12.5469 9.70312 14.375 12 14.375C14.25 14.375 16.125 12.5469 16.125 10.25C16.125 8 14.25 6.125 12 6.125ZM12 12.875C10.5469 12.875 9.375 11.7031 9.375 10.25C9.375 8.84375 10.5469 7.625 12 7.625C13.4062 7.625 14.625 8.84375 14.625 10.25C14.625 11.7031 13.4062 12.875 12 12.875Z" fill="#E0E0E0"/>
</svg>
