<svg width="24" height="25" viewBox="0 0 24 25" fill="none" xmlns="http://www.w3.org/2000/svg">
<path d="M23.5312 6.125L19.1719 1.76562C18.9844 1.625 18.75 1.625 18.6094 1.76562L18.0938 2.28125C17.9531 2.42188 17.9531 2.65625 18.0938 2.79688L19.5 4.20312V8C19.5 9.26562 20.4844 10.25 21.75 10.25H22.5V18.4531C22.5 19.2031 21.9844 19.8594 21.2344 20C20.2969 20.1406 19.5 19.4375 19.5 18.5V16.25C19.5 14.1875 17.8125 12.5 15.75 12.5H15V3.5C15 1.85938 13.6406 0.5 12 0.5H4.5C2.8125 0.5 1.5 1.85938 1.5 3.5V23H0.375C0.140625 23 0 23.1875 0 23.375V24.125C0 24.3594 0.140625 24.5 0.375 24.5H16.125C16.3125 24.5 16.5 24.3594 16.5 24.125V23.375C16.5 23.1875 16.3125 23 16.125 23H15V14H15.75C16.9688 14 18 15.0312 18 16.25V18.3594C18 19.8594 18.9844 21.2188 20.4844 21.5C22.3594 21.7812 24 20.3281 24 18.5V7.20312C24 6.82812 23.8125 6.40625 23.5312 6.125ZM22.5 8.75H21.75C21.3281 8.75 21 8.42188 21 8V5.70312L22.5 7.20312V8.75ZM13.5 23H3V11H13.5V23ZM13.5 9.5H3V3.5C3 2.70312 3.65625 2 4.5 2H12C12.7969 2 13.5 2.70312 13.5 3.5V9.5Z" fill="#E0E0E0"/>
</svg>
